<svg width="149" height="51" viewBox="0 0 149 51" fill="none" xmlns="http://www.w3.org/2000/svg">
<g clip-path="url(#clip0_161_2338)">
<path d="M9.90262 8.67016H0V33.7741H9.90262C13.3327 33.7741 16.2252 32.5491 18.4998 30.1283C20.7706 27.7111 21.9262 24.7162 21.9262 21.2203C21.9262 17.7244 20.7743 14.7002 18.4998 12.294C16.2252 9.88787 13.3327 8.6665 9.90262 8.6665V8.67016ZM15.4719 27.1699C14.0421 28.7241 12.1698 29.5139 9.90262 29.5139H4.4357V12.9303H9.90262C12.1698 12.9303 14.0421 13.7129 15.4719 15.2561C16.9054 16.8029 17.6294 18.8105 17.6294 21.224C17.6294 23.6374 16.9017 25.6158 15.4683 27.1736L15.4719 27.1699Z" fill="black"/>
<path d="M33.0794 15.2783C30.3076 15.2783 28.0038 16.1962 26.2339 18.0026C24.464 19.8091 23.5645 22.08 23.5645 24.7567C23.5645 27.4335 24.475 29.7666 26.2705 31.5511C28.066 33.3356 30.4502 34.2388 33.361 34.2388C36.8277 34.2388 39.4825 32.9151 41.2524 30.3041L41.3658 30.1396L37.8991 28.1137L37.8004 28.2563C36.8277 29.6569 35.3467 30.3663 33.3976 30.3663C31.9824 30.3663 30.772 30.0152 29.7956 29.3241C28.8851 28.6768 28.2744 27.7517 27.9782 26.5705H41.9691L41.9911 26.4096C42.0861 25.7441 42.1337 25.1992 42.1337 24.7933C42.1337 22.1677 41.278 19.9005 39.5922 18.0611C37.9028 16.2145 35.7123 15.2783 33.0758 15.2783H33.0794ZM29.6274 20.2369C30.5307 19.491 31.6789 19.1143 33.0429 19.1143C34.2423 19.1143 35.3028 19.469 36.195 20.1711C37.0361 20.833 37.5993 21.813 37.8662 23.0892H27.9343C28.2049 21.9008 28.7754 20.9427 29.6238 20.2406" fill="black"/>
<path d="M47.7067 9.90276C46.3208 11.1936 45.615 13.0988 45.615 15.5671V15.7354H42.9309V19.7834H45.615V33.7744H49.8057V19.7834H53.9744V15.7354H49.8057V15.5671C49.8057 14.3823 50.1092 13.501 50.7126 12.9525C51.3635 12.3601 52.3911 12.1261 53.7733 12.2541L53.9781 12.2724V8.21697L53.8026 8.206C51.1477 8.03779 49.0963 8.60825 47.7103 9.8991" fill="black"/>
<path d="M58.2088 8.21338C57.4775 8.21338 56.8485 8.47667 56.3439 8.99228C55.8392 9.50789 55.5833 10.1295 55.5833 10.8353C55.5833 11.5411 55.8465 12.1664 56.3622 12.682C56.8778 13.1976 57.4994 13.4609 58.2088 13.4609C58.9183 13.4609 59.5363 13.1976 60.0555 12.682C60.5711 12.1664 60.8344 11.5447 60.8344 10.8353C60.8344 10.1259 60.5784 9.50789 60.0738 8.99228C59.5692 8.47301 58.9402 8.21338 58.2088 8.21338Z" fill="black"/>
<path d="M60.3079 15.7354H56.1172V33.7744H60.3079V15.7354Z" fill="black"/>
<path d="M73.1215 15.2783C70.8031 15.2783 69.0259 16.0572 67.8338 17.5967V15.7391H63.6431V33.7781H67.8338V24.1241C67.8338 22.4639 68.2324 21.217 69.0149 20.4234C69.7975 19.6299 70.847 19.224 72.1342 19.224C73.3007 19.224 74.2332 19.5604 74.8987 20.2296C75.5642 20.8952 75.9043 21.8752 75.9043 23.1368V33.7817H80.095V22.7492C80.095 20.449 79.4478 18.6097 78.1715 17.2859C76.8917 15.9585 75.1949 15.2856 73.1252 15.2856" fill="black"/>
<path d="M98.3971 18.0572C96.7077 16.2106 94.5173 15.2744 91.8807 15.2744C89.1089 15.2744 86.8051 16.1923 85.0352 17.9987C83.2653 19.8052 82.3657 22.0761 82.3657 24.7528C82.3657 27.4296 83.2763 29.7627 85.0718 31.5472C86.8672 33.3317 89.2515 34.2349 92.1623 34.2349C95.6289 34.2349 98.2838 32.9112 100.054 30.3002L100.167 30.1357L96.7004 28.1098L96.6017 28.2524C95.6289 29.653 94.1479 30.3624 92.1989 30.3624C90.7837 30.3624 89.5733 30.0113 88.5969 29.3202C87.6864 28.6729 87.0757 27.7478 86.7795 26.5666H100.77L100.792 26.4057C100.887 25.7402 100.935 25.1953 100.935 24.7894C100.935 22.1638 100.079 19.8966 98.3935 18.0572H98.3971ZM88.4287 20.2367C89.3319 19.4907 90.4802 19.1141 91.8442 19.1141C93.0436 19.1141 94.1041 19.4688 94.9963 20.1709C95.8374 20.8328 96.4005 21.8128 96.6675 23.089H86.7356C87.0062 21.9005 87.5767 20.9425 88.425 20.2403" fill="black"/>
<path d="M140.611 0L132.219 8.39236L123.83 16.7811L132.219 25.1734L140.611 16.7811L149 8.39236L140.611 0Z" fill="#0037FF"/>
<path d="M115.438 25.1733L107.049 33.562L98.6567 41.9544L107.049 50.3431L115.438 41.9544L123.83 33.562L115.438 25.1733Z" fill="black"/>
<path d="M140.611 33.562L132.219 25.1733L123.83 33.562L132.219 41.9544L140.611 50.3431L149 41.9544L140.611 33.562Z" fill="#0037FF"/>
<path d="M115.438 8.39236L107.049 0L98.6567 8.39236L107.049 16.7811L115.438 25.1734L123.83 16.7811L115.438 8.39236Z" fill="black"/>
</g>
<defs>
<clipPath id="clip0_161_2338">
<rect width="149" height="50.3432" fill="white"/>
</clipPath>
</defs>
</svg>
